{
  "accessors": [
    {
      "bufferView": 2,
      "componentType": 5126,
      "count": 15647,
      "max": [
        10.583316802978516,
        11.479734420776367,
        10.087101936340332
      ],
      "min": [
        -10.583316802978516,
        -11.479734420776367,
        -10.087101936340332
      ],
      "type": "VEC3"
    },
    {
      "bufferView": 2,
      "byteOffset": 187764,
      "componentType": 5126,
      "count": 15647,
      "max": [
        0.9999332427978516,
        0.9998721480369568,
        0.9999391436576843
      ],
      "min": [
        -0.9999532699584961,
        -0.9999759197235107,
        -0.9998066425323486
      ],
      "type": "VEC3"
    },
    {
      "bufferView": 3,
      "componentType": 5126,
      "count": 15647,
      "max": [
        0.9992728233337402,
        0.999992311000824,
        0.9998669624328613,
        1.0
      ],
      "min": [
        -0.999755859375,
        -0.9997749924659729,
        -0.9999566078186035,
        -1.0
      ],
      "type": "VEC4"
    },
    {
      "bufferView": 1,
      "componentType": 5126,
      "count": 15647,
      "max": [
        0.9732325077056885,
        0.9979999661445618
      ],
      "min": [
        0.0020000000949949026,
        0.0020000000949949026
      ],
      "type": "VEC2"
    },
    {
      "bufferView": 0,
      "componentType": 5125,
      "count": 89982,
      "type": "SCALAR"
    }
  ],
  "asset": {
    "extras": {
      "author": "3dhdscan (https://sketchfab.com/3dhdscan)",
      "license": "CC-BY-NC-4.0 (http://creativecommons.org/licenses/by-nc/4.0/)",
      "source": "https://sketchfab.com/3d-models/apple-35c6e714b78e4dab81ff5d9911e0a5e5",
      "title": "Apple"
    },
    "generator": "Sketchfab-12.67.0",
    "version": "2.0"
  },
  "bufferViews": [
    {
      "buffer": 0,
      "byteLength": 359928,
      "name": "floatBufferViews",
      "target": 34963
    },
    {
      "buffer": 0,
      "byteLength": 125176,
      "byteOffset": 359928,
      "byteStride": 8,
      "name": "floatBufferViews",
      "target": 34962
    },
    {
      "buffer": 0,
      "byteLength": 375528,
      "byteOffset": 485104,
      "byteStride": 12,
      "name": "floatBufferViews",
      "target": 34962
    },
    {
      "buffer": 0,
      "byteLength": 250352,
      "byteOffset": 860632,
      "byteStride": 16,
      "name": "floatBufferViews",
      "target": 34962
    }
  ],
  "buffers": [
    {
      "byteLength": 1110984,
      "uri": "scene.bin"
    }
  ],
  "extensionsRequired": [
    "KHR_materials_pbrSpecularGlossiness"
  ],
  "extensionsUsed": [
    "KHR_materials_pbrSpecularGlossiness"
  ],
  "images": [
    {
      "uri": "textures/jabko_s_diffuse.jpeg"
    },
    {
      "uri": "textures/jabko_s_normal.jpeg"
    },
    {
      "uri": "textures/jabko_s_occlusion.png"
    }
  ],
  "materials": [
    {
      "doubleSided": true,
      "extensions": {
        "KHR_materials_pbrSpecularGlossiness": {
          "diffuseFactor": [
            1.0,
            1.0,
            1.0,
            1.0
          ],
          "diffuseTexture": {
            "index": 0
          },
          "glossinessFactor": 0.40415396341463417,
          "specularFactor": [
            0.1663490853658537,
            0.1663490853658537,
            0.1663490853658537
          ]
        }
      },
      "name": "jabko_s",
      "normalTexture": {
        "index": 1
      },
      "occlusionTexture": {
        "index": 2
      }
    }
  ],
  "meshes": [
    {
      "name": "jabko_s_jabko_s_0",
      "primitives": [
        {
          "attributes": {
            "NORMAL": 1,
            "POSITION": 0,
            "TANGENT": 2,
            "TEXCOORD_0": 3
          },
          "indices": 4,
          "material": 0,
          "mode": 4
        }
      ]
    }
  ],
  "nodes": [
    {
      "children": [
        1
      ],
      "matrix": [
        -0.005321050028085028,
        0.0007915662982189431,
        -4.378315082099612e-18,
        0.0,
        0.0007915662982189431,
        0.005321050028085028,
        1.1815104512724668e-18,
        0.0,
        4.554078108059607e-18,
        1.1945122906385854e-18,
        -0.005379605107009411,
        0.0,
        -0.9280018210411072,
        -11.826862335205076,
        -11.895509719848635,
        1.0
      ],
      "name": "Sketchfab_model"
    },
    {
      "children": [
        2
      ],
      "matrix": [
        1.0,
        0.0,
        0.0,
        0.0,
        0.0,
        -1.0,
        0.0,
        0.0,
        0.0,
        0.0,
        -1.0,
        0.0,
        0.0,
        0.0,
        0.0,
        1.0
      ],
      "name": "jabko_s.FBX"
    },
    {
      "children": [
        3
      ],
      "name": "RootNode"
    },
    {
      "children": [
        4
      ],
      "matrix": [
        1.0,
        0.0,
        0.0,
        0.0,
        0.0,
        1.0,
        0.0,
        0.0,
        0.0,
        0.0,
        1.0,
        0.0,
        0.3844785690307617,
        -11.50456428527832,
        0.39093971252441406,
        1.0
      ],
      "name": "jabko_s"
    },
    {
      "mesh": 0,
      "name": "jabko_s_jabko_s_0"
    }
  ],
  "samplers": [
    {
      "magFilter": 9729,
      "minFilter": 9987,
      "wrapS": 10497,
      "wrapT": 10497
    }
  ],
  "scene": 0,
  "scenes": [
    {
      "name": "Sketchfab_Scene",
      "nodes": [
        0
      ]
    }
  ],
  "textures": [
    {
      "sampler": 0,
      "source": 0
    },
    {
      "sampler": 0,
      "source": 1
    },
    {
      "sampler": 0,
      "source": 2
    }
  ]
}
